<?xml version="1.0" encoding="utf-8"?>
<!-- Generator: Adobe Illustrator 21.0.0, SVG Export Plug-In . SVG Version: 6.00 Build 0)  -->
<svg version="1.1" id="Layer_1" xmlns="http://www.w3.org/2000/svg" xmlns:xlink="http://www.w3.org/1999/xlink" x="0px" y="0px"
	 viewBox="0 0 40 40" style="enable-background:new 0 0 40 40;" xml:space="preserve">
<style type="text/css">
	.st0{fill:none;stroke:#000000;stroke-width:2;}
</style>
<title>ic_payment</title>
<desc>Created with Sketch.</desc>
<path id="路径" class="st0" d="M31.8,21.1c1.7-2.9,2.2-7.9,2.2-15.8c-6.2,0-21.9-0.1-28,0c0,8.6,1.2,16.1,3.7,20.5
	s5.8,7.3,10.3,9.4c1.5-0.9,2.6-1.5,3.7-2.6"/>
<rect id="矩形" x="6" y="9" width="28" height="2"/>
<g id="编组" transform="translate(16.000000, 15.952637)">
	<circle id="椭圆形" class="st0" cx="13.5" cy="12.5" r="7.5"/>
</g>
<g>
	<path d="M27,29h-0.6v1.9h-1.3v-5.8h2.3c1.1,0,2,0.9,2,2c0,0.7-0.4,1.4-1.1,1.7l1.2,2.1h-1.4L27,29z M26.4,27.8h1
		c0.4,0,0.7-0.3,0.7-0.7s-0.3-0.7-0.7-0.7h-1V27.8z"/>
	<path d="M34.6,28.8c0,1.2-0.9,2.2-2,2.2c-0.6,0-1-0.2-1.2-0.5v2h-1.2v-5.8h1.2v0.4c0.3-0.3,0.7-0.5,1.2-0.5
		C33.7,26.6,34.6,27.6,34.6,28.8z M33.3,28.8c0-0.6-0.4-1-1-1s-1,0.4-1,1s0.4,1,1,1S33.3,29.4,33.3,28.8z"/>
</g>
</svg>
