<?xml version="1.0" encoding="utf-8"?>
<!-- Generator: Adobe Illustrator 21.0.0, SVG Export Plug-In . SVG Version: 6.00 Build 0)  -->
<svg version="1.1" id="Layer_1" xmlns="http://www.w3.org/2000/svg" xmlns:xlink="http://www.w3.org/1999/xlink" x="0px" y="0px"
	 viewBox="0 0 40 40" style="enable-background:new 0 0 40 40;" xml:space="preserve">
<style type="text/css">
	.st0{fill:none;stroke:#000000;stroke-width:2;}
</style>
<title>ic_cod</title>
<desc>Created with Sketch.</desc>
<circle id="椭圆形" class="st0" cx="20" cy="20" r="16"/>
<circle id="椭圆形_1_" class="st0" cx="20" cy="20" r="11"/>
<g>
	<path d="M16.4,20.8h-0.9v2.7h-1.9v-8.3h3.3c1.6,0,2.9,1.3,2.9,2.8c0,1-0.6,1.9-1.5,2.4l1.8,3.1h-2L16.4,20.8z M15.5,19.1h1.4
		c0.5,0,1-0.5,1-1.1c0-0.6-0.4-1.1-1-1.1h-1.4V19.1z"/>
	<path d="M27.2,20.6c0,1.8-1.3,3.1-2.8,3.1c-0.8,0-1.4-0.3-1.8-0.7v2.9h-1.8v-8.3h1.8v0.6c0.4-0.5,1-0.7,1.8-0.7
		C26,17.4,27.2,18.8,27.2,20.6z M25.5,20.6c0-0.9-0.6-1.4-1.4-1.4c-0.8,0-1.4,0.6-1.4,1.4S23.2,22,24,22
		C24.9,22,25.5,21.5,25.5,20.6z"/>
</g>
</svg>
